<?xml version="1.0" encoding="UTF-8"?>
<svg id="Layer_2" data-name="Layer 2" xmlns="http://www.w3.org/2000/svg" xmlns:xlink="http://www.w3.org/1999/xlink" viewBox="0 0 257.9 148.11">
  <defs>
    <style>
      .cls-1 {
        clip-path: url(#clippath);
      }

      .cls-2 {
        fill: none;
      }

      .cls-2, .cls-3, .cls-4 {
        stroke-width: 0px;
      }

      .cls-3 {
        fill: #9e0b0f;
      }

      .cls-4 {
        fill: #231f20;
      }
    </style>
    <clipPath id="clippath">
      <rect class="cls-2" width="257.9" height="148.11"/>
    </clipPath>
  </defs>
  <g id="Layer_1-2" data-name="Layer 1">
    <g class="cls-1">
      <path class="cls-4" d="M57.26,81.81l-10.18,33.02c-7.68,24.96-21.02,33.12-35.13,33.12-9.31,0-11.71-5.47-11.71-8.93,0-5.95,3.94-7.97,7.49-7.97s5.18,2.98,5.18,4.7c0,3.36-.96,4.61-2.21,5.28-2.21,1.15-4.9,0-5.57,1.73.38,2.88,4.13,3.36,6.43,3.36,10.08,0,17.57-8.16,24-28.13l-.38-.1c-3.36,4.32-7.68,8.26-13.15,8.26-6.62,0-11.23-5.09-11.23-10.75,0-1.44.86-4.61,1.92-7.2l5.66-14.3c1.73-4.32,2.59-7.3,2.59-8.83,0-2.02-.77-2.4-2.11-2.4-4.22,0-7.3,4.8-10.46,12.96l-1.73-.67c3.36-8.45,6.72-14.59,13.73-14.59,4.9,0,10.08,2.59,10.08,7.97,0,2.3-.48,4.51-1.73,7.68l-6.14,15.17c-.96,2.5-2.11,5.95-2.11,7.68,0,3.07,1.44,3.84,3.94,3.84,4.13,0,8.83-4.22,11.9-8.64l10.08-32.25h10.85Z"/>
      <path class="cls-4" d="M84.14,80.37c4.9,0,8.93,2.5,8.93,7.01,0,9.21-11.14,15.17-24.38,17.09-.77,3.55-1.34,7.2-1.34,10.27,0,5.57,1.34,8.45,5.66,8.45,7.2,0,12.19-5.76,16.03-12.86l1.73.86c-5.86,11.14-12.58,15.17-19.2,15.17-7.78,0-15.74-3.84-15.74-15.36s10.46-30.62,28.32-30.62ZM81.36,82.29c-4.7,0-9.79,10.08-12.29,20.16,11.42-2.21,14.97-9.7,15.17-14.5.19-3.94-.77-5.66-2.88-5.66Z"/>
      <path class="cls-4" d="M123.5,111.57c-3.46,8.54-7.1,14.5-13.82,14.5-4.8,0-10.85-2.02-10.85-7.87,0-2.3.48-4.22,1.82-7.58l6.62-16.7c1.54-3.94,2.5-7.39,2.5-8.64,0-2.02-.77-2.59-2.3-2.59-4.22,0-7.2,4.8-10.37,12.96l-1.82-.67c3.46-8.45,6.82-14.59,13.73-14.59,5.09,0,10.46,2.88,10.46,8.54,0,2.11-1.73,6.53-2.78,9.31l-5.66,14.5c-1.63,4.22-2.69,7.01-2.69,8.45,0,2.21,1.25,2.5,2.78,2.5,4.22,0,7.49-4.51,10.66-12.67l1.73.58Z"/>
      <path class="cls-4" d="M175.34,95.44c0,12.86-12.48,30.81-27.45,30.81-3.65,0-6.91-2.78-7.78-6.14h-.38l-4.8,15.55c-.96,2.98-1.34,5.18-1.34,6.43,0,2.11,1.73,2.78,3.94,3.07,2.4.29,3.36.29,5.66.38l-.48,1.92h-29.37l.48-1.82c4.42,0,5.66-.77,6.82-2.11,1.82-2.02,2.88-5.76,3.65-8.06l13.15-41.56c1.15-3.74,2.21-7.2,2.21-8.45,0-2.11-.67-2.78-2.02-2.78-4.03,0-7.2,4.8-10.37,12.96l-1.92-.67c3.46-8.45,6.91-14.59,13.63-14.59,4.42,0,9.31,2.88,9.31,9.21l.38.1c3.84-4.99,8.06-9.31,14.02-9.31s12.67,3.07,12.67,15.07ZM164.11,90.83c0-5.86-2.4-6.82-4.22-6.82-4.32,0-8.35,4.42-11.62,9.12l-7.39,23.71c1.25,4.8,3.46,6.91,6.91,6.91,7.78,0,16.32-20.45,16.32-32.93Z"/>
      <g>
        <path class="cls-3" d="M49.29,33.59c0,3.55-1.92,7.2-5.86,7.2s-5.57-2.21-5.57-4.8,2.4-4.03,2.78-5.28c.1-.67.19-1.06-.58-1.15-3.55,0-8.16,7.01-10.94,12.09l-9.12,29.76h-10.94l9.79-31.1c.96-3.07,2.4-7.3,2.4-8.64,0-2.02-.67-2.59-2.11-2.59-4.32,0-7.3,5.09-10.37,12.96l-1.92-.67c3.46-8.45,6.82-14.59,13.82-14.59,4.13,0,9.12,2.69,9.12,9.7l.38.1c3.26-5.09,6.62-9.79,12.1-9.79,4.42,0,7.01,3.26,7.01,6.82Z"/>
        <path class="cls-3" d="M96.14,57.97c-3.46,8.54-6.91,14.49-13.73,14.49-5.86,0-9.89-2.5-9.89-9.12l-.38-.1c-3.65,5.76-8.45,9.5-13.44,9.5-5.86,0-12.38-3.65-12.38-15.17,0-12.48,12.19-30.81,26.97-30.81,3.65,0,6.91,2.98,7.58,7.3h.29l2.21-6.72h10.94l-10.94,31.77c-1.34,3.94-2.11,7.01-2.11,8.26,0,2.21.96,2.69,2.5,2.69,4.22,0,7.3-4.51,10.46-12.67l1.92.58ZM79.92,37.71c-1.06-5.86-3.07-8.54-6.34-8.54-7.68,0-16.03,19.97-16.03,33.02,0,5.86,1.92,6.91,3.84,6.91,3.94,0,7.97-3.65,11.33-9.6l7.2-21.79Z"/>
      </g>
      <g>
        <path class="cls-3" d="M151.05,57.97c-3.55,8.64-7.1,14.49-14.21,14.49-4.61,0-10.75-2.3-10.75-7.87,0-2.3.77-4.42,1.92-7.58l5.76-15.36c1.34-3.65,2.21-6.14,2.21-7.68,0-2.88-1.63-3.74-3.65-3.74-4.42,0-9.02,4.99-12.67,11.52l-9.79,29.66h-11.04l10.56-31.1c1.25-3.55,2.3-7.39,2.3-8.74,0-1.92-.58-2.5-2.02-2.5-4.22,0-7.2,4.8-10.37,12.96l-1.92-.67c3.55-8.64,6.91-14.59,13.82-14.59,4.32,0,9.7,1.82,9.7,8.93l.38.1c4.03-5.57,8.35-9.02,13.34-9.02,5.95,0,11.14,4.8,11.14,10.75,0,1.34-.77,4.32-1.82,7.1l-5.57,14.5c-1.73,4.51-2.59,7.2-2.59,8.54,0,2.11,1.34,2.4,2.88,2.4,4.22,0,7.39-4.51,10.56-12.67l1.82.58Z"/>
        <path class="cls-3" d="M180.62,26.77c3.94,0,6.62,2.59,7.68,6.43h.29l6.05-20.25c.86-2.98,1.44-5.18,1.44-6.43,0-2.11-1.73-2.78-3.94-3.07-2.4-.29-4.32-.29-6.72-.38v-1.92l24.09-.96-18.53,58.94c-1.06,3.46-1.92,6.81-1.92,8.16,0,2.21.96,2.78,2.4,2.78,4.51,0,7.29-4.51,10.46-12.67l1.92.58c-3.46,8.54-6.91,14.49-13.73,14.49-5.66,0-9.89-2.3-9.89-8.64l-.38-.1c-3.65,5.18-8.26,9.02-13.54,9.02s-12.67-3.17-12.67-15.17c0-12.77,12.77-30.81,26.97-30.81ZM181.2,29.17c-7.97,0-16.32,20.35-16.32,32.93,0,5.95,2.11,7.01,4.13,7.01,3.94,0,8.26-3.84,11.23-8.83l7.2-23.42c-1.15-5.18-3.17-7.68-6.24-7.68Z"/>
        <path class="cls-3" d="M257.9,28.21l-10.18,33.02c-7.68,24.96-21.02,33.12-35.13,33.12-9.31,0-11.71-5.47-11.71-8.93,0-5.95,3.94-7.97,7.49-7.97s5.18,2.98,5.18,4.7c0,3.36-.96,4.61-2.21,5.28-2.21,1.15-4.9,0-5.57,1.73.38,2.88,4.13,3.36,6.43,3.36,10.08,0,17.57-8.16,24-28.13l-.38-.1c-3.36,4.32-7.68,8.26-13.15,8.26-6.62,0-11.23-5.09-11.23-10.75,0-1.44.86-4.61,1.92-7.2l5.66-14.3c1.73-4.32,2.59-7.3,2.59-8.83,0-2.02-.77-2.4-2.11-2.4-4.22,0-7.3,4.8-10.46,12.96l-1.73-.67c3.36-8.45,6.72-14.59,13.73-14.59,4.9,0,10.08,2.59,10.08,7.97,0,2.3-.48,4.51-1.73,7.68l-6.14,15.17c-.96,2.5-2.11,5.95-2.11,7.68,0,3.07,1.44,3.84,3.94,3.84,4.13,0,8.83-4.22,11.9-8.64l10.08-32.25h10.85Z"/>
      </g>
    </g>
  </g>
</svg>