<?xml version="1.0" encoding="UTF-8"?>
<svg id="Layer_2" data-name="Layer 2" xmlns="http://www.w3.org/2000/svg" viewBox="0 0 32.58 32.13">
  <defs>
    <style>
      .cls-1 {
        fill: #9e0b0f;
      }

      .cls-1, .cls-2 {
        stroke-width: 0px;
      }

      .cls-2 {
        fill: #fff;
      }
    </style>
  </defs>
  <g id="Layer_1-2" data-name="Layer 1">
    <circle class="cls-1" cx="16.58" cy="16" r="16"/>
    <g>
      <path class="cls-2" d="M14.65,11.15c0,1.23-.66,2.49-2.02,2.49s-1.92-.76-1.92-1.66.83-1.39.96-1.82c.03-.23.07-.36-.2-.4-1.23,0-2.82,2.42-3.78,4.18l-3.15,10.27H.76l3.38-10.74c.33-1.06.83-2.52.83-2.98,0-.7-.23-.89-.73-.89-1.49,0-2.52,1.76-3.58,4.47l-.66-.23c1.19-2.92,2.35-5.04,4.77-5.04,1.43,0,3.15.93,3.15,3.35l.13.03c1.13-1.76,2.29-3.38,4.18-3.38,1.52,0,2.42,1.13,2.42,2.35Z"/>
      <path class="cls-2" d="M32,9.29l-3.51,11.4c-2.65,8.62-7.26,11.43-12.13,11.43-3.21,0-4.04-1.89-4.04-3.08,0-2.05,1.36-2.75,2.58-2.75s1.79,1.03,1.79,1.62c0,1.16-.33,1.59-.76,1.82-.76.4-1.69,0-1.92.6.13.99,1.43,1.16,2.22,1.16,3.48,0,6.06-2.82,8.29-9.71l-.13-.03c-1.16,1.49-2.65,2.85-4.54,2.85-2.29,0-3.88-1.76-3.88-3.71,0-.5.3-1.59.66-2.49l1.96-4.94c.6-1.49.89-2.52.89-3.05,0-.7-.26-.83-.73-.83-1.46,0-2.52,1.66-3.61,4.47l-.6-.23c1.16-2.92,2.32-5.04,4.74-5.04,1.69,0,3.48.89,3.48,2.75,0,.8-.17,1.56-.6,2.65l-2.12,5.24c-.33.86-.73,2.05-.73,2.65,0,1.06.5,1.33,1.36,1.33,1.43,0,3.05-1.46,4.11-2.98l3.48-11.14h3.75Z"/>
    </g>
  </g>
</svg>